<svg xmlns="http://www.w3.org/2000/svg" viewBox="0 0 290 72" fill="none" role="img" aria-label="Zelcodes">
  <defs>
    <linearGradient id="lg-grad" x1="8" y1="8" x2="64" y2="64" gradientUnits="userSpaceOnUse">
      <stop offset="0" stop-color="#6366f1"/>
      <stop offset=".5" stop-color="#ec4899"/>
      <stop offset="1" stop-color="#38bdf8"/>
    </linearGradient>
    <linearGradient id="lg-sheen" x1="36" y1="6" x2="36" y2="52" gradientUnits="userSpaceOnUse">
      <stop offset="0" stop-color="#ffffff" stop-opacity=".42"/>
      <stop offset="1" stop-color="#ffffff" stop-opacity="0"/>
    </linearGradient>
    <radialGradient id="lg-comet" cx="48" cy="22" r="10" gradientUnits="userSpaceOnUse">
      <stop offset="0" stop-color="#ffffff" stop-opacity=".9"/>
      <stop offset="1" stop-color="#ffffff" stop-opacity="0"/>
    </radialGradient>
    <linearGradient id="lg-word" x1="90" y1="18" x2="280" y2="56" gradientUnits="userSpaceOnUse">
      <stop offset="0" stop-color="#6366f1"/>
      <stop offset=".55" stop-color="#ec4899"/>
      <stop offset="1" stop-color="#38bdf8"/>
    </linearGradient>
  </defs>

  <g transform="rotate(-14 36 36)" opacity=".22">
    <path d="M36 8 C54 8 64 18 64 36 C64 54 54 64 36 64 C18 64 8 54 8 36 C8 18 18 8 36 8 Z" fill="url(#lg-grad)"/>
  </g>
  <g transform="rotate(-7 36 36)" opacity=".5">
    <path d="M36 8 C54 8 64 18 64 36 C64 54 54 64 36 64 C18 64 8 54 8 36 C8 18 18 8 36 8 Z" fill="url(#lg-grad)"/>
  </g>
  <path d="M36 8 C54 8 64 18 64 36 C64 54 54 64 36 64 C18 64 8 54 8 36 C8 18 18 8 36 8 Z" fill="url(#lg-grad)"/>
  <path d="M36 8 C54 8 64 18 64 36 C64 54 54 64 36 64 C18 64 8 54 8 36 C8 18 18 8 36 8 Z" fill="url(#lg-sheen)"/>

  <path d="M22 48 C 28 40 32 30 46 22" stroke="#ffffff" stroke-opacity=".18" stroke-width="10" stroke-linecap="round" fill="none"/>
  <path d="M22 48 C 28 40 32 30 46 22" stroke="#ffffff" stroke-opacity=".95" stroke-width="4.5" stroke-linecap="round" fill="none"/>
  <circle cx="22" cy="48" r="2.8" fill="#ffffff"/>
  <circle cx="48" cy="22" r="10" fill="url(#lg-comet)"/>
  <circle cx="48" cy="22" r="4.2" fill="#ffffff"/>

  <text
    x="88"
    y="50"
    font-family="Inter, ui-sans-serif, system-ui, -apple-system, 'Segoe UI', Roboto, sans-serif"
    font-weight="800"
    font-size="34"
    letter-spacing="-1.6"
    fill="url(#lg-word)"
  >zelcodes</text>
  <circle cx="268" cy="47" r="2.6" fill="#38bdf8"/>
</svg>
